<svg xmlns="http://www.w3.org/2000/svg" viewBox="0 0 79 37.91"><defs><style>.a{fill:#b03441;}</style></defs><path d="M14.34,37.55V30.08a.32.32,0,0,1,.37-.36c.21,0,.41.17.58.51l1.91,3.69,1.91-3.69c.18-.34.38-.51.59-.51a.33.33,0,0,1,.37.36v7.47a.25.25,0,0,1-.11.21.45.45,0,0,1-.26.08.41.41,0,0,1-.25-.08.24.24,0,0,1-.12-.21V31.31l-1.84,3.48q-.12.24-.3.24c-.11,0-.21-.08-.29-.24l-1.83-3.51v6.27a.23.23,0,0,1-.11.21.44.44,0,0,1-.25.08.42.42,0,0,1-.26-.08A.23.23,0,0,1,14.34,37.55Z"/><path d="M24,37.55V30c0-.18.12-.27.37-.27s.37.09.37.27v7.56a.24.24,0,0,1-.12.21.41.41,0,0,1-.25.08.45.45,0,0,1-.26-.08A.25.25,0,0,1,24,37.55Z"/><path d="M28.61,37.55V30a.27.27,0,0,1,.1-.21.48.48,0,0,1,.24-.07H32.9c.18,0,.27.11.27.32a.41.41,0,0,1-.07.25.23.23,0,0,1-.2.11H29.35v3.05h1.74a.22.22,0,0,1,.2.1.36.36,0,0,1,.08.23c0,.2-.1.3-.28.3H29.35v3.08H32.9a.25.25,0,0,1,.2.1.38.38,0,0,1,.07.24c0,.22-.09.34-.27.34H29a.41.41,0,0,1-.24-.08A.27.27,0,0,1,28.61,37.55Z"/><path d="M35.88,36c0-.25.12-.38.36-.38s.37.1.37.29a1.28,1.28,0,0,0,.43,1,1.74,1.74,0,0,0,1.15.36,1.58,1.58,0,0,0,1.17-.42,1.76,1.76,0,0,0,.41-1.27V30.4H38.2a.22.22,0,0,1-.2-.11.41.41,0,0,1-.08-.25.33.33,0,0,1,.08-.22.21.21,0,0,1,.2-.1h2c.22,0,.34.09.34.28v5.53a2.32,2.32,0,0,1-.63,1.8,2.37,2.37,0,0,1-1.66.57,2.49,2.49,0,0,1-1.69-.55A1.77,1.77,0,0,1,35.88,36Z"/><path d="M43.93,36.73a.48.48,0,0,1,.1-.28.31.31,0,0,1,.23-.14c.06,0,.13,0,.22.15l.31.32a1.46,1.46,0,0,0,.53.32,2.38,2.38,0,0,0,.84.14,1.77,1.77,0,0,0,1.22-.4,1.45,1.45,0,0,0,.43-1.14,1.68,1.68,0,0,0-.2-.84,1.38,1.38,0,0,0-.53-.54,3.92,3.92,0,0,0-.71-.36l-.8-.31a3.66,3.66,0,0,1-.71-.37,1.67,1.67,0,0,1-.53-.61,2.1,2.1,0,0,1-.2-.94,2.2,2.2,0,0,1,.21-1,1.5,1.5,0,0,1,.59-.63,3,3,0,0,1,.75-.31,3.44,3.44,0,0,1,.8-.09,4,4,0,0,1,1.27.19c.4.13.6.29.6.49a.5.5,0,0,1-.1.27.28.28,0,0,1-.23.14.73.73,0,0,1-.25-.11,4.06,4.06,0,0,0-.53-.2,2.57,2.57,0,0,0-.77-.1,2,2,0,0,0-1.15.3,1.08,1.08,0,0,0-.46,1,1.19,1.19,0,0,0,.27.8,1.52,1.52,0,0,0,.69.47c.27.1.57.21.88.34s.62.28.89.43a1.76,1.76,0,0,1,.68.72,2.53,2.53,0,0,1,.28,1.22,2.16,2.16,0,0,1-.64,1.7,2.45,2.45,0,0,1-1.71.57,3,3,0,0,1-1.62-.41C44.15,37.23,43.93,37,43.93,36.73Z"/><path d="M52,35.53V32.09a2.27,2.27,0,0,1,.64-1.79,2.8,2.8,0,0,1,3.36,0,1.69,1.69,0,0,1,.61,1.32.58.58,0,0,1-.08.35.38.38,0,0,1-.28.09c-.23,0-.36-.09-.37-.28a3.11,3.11,0,0,0,0-.32,1.81,1.81,0,0,0-.14-.35,1.06,1.06,0,0,0-.26-.34,1.57,1.57,0,0,0-.45-.24,2.19,2.19,0,0,0-.66-.09c-1.07,0-1.6.56-1.6,1.69v3.44a1.47,1.47,0,0,0,1.64,1.69,2.21,2.21,0,0,0,.78-.12.93.93,0,0,0,.45-.37,2.51,2.51,0,0,0,.2-.42,3.4,3.4,0,0,0,.08-.45c0-.19.14-.29.37-.29a.34.34,0,0,1,.28.1.59.59,0,0,1,.08.36A1.72,1.72,0,0,1,56,37.36a2.53,2.53,0,0,1-1.7.54,2.37,2.37,0,0,1-1.66-.58A2.31,2.31,0,0,1,52,35.53Z"/><path d="M60.1,37.55V30a.24.24,0,0,1,.1-.21.45.45,0,0,1,.23-.07h3.95c.19,0,.28.11.28.32a.41.41,0,0,1-.07.25.25.25,0,0,1-.21.11H60.83v3.05h1.74a.24.24,0,0,1,.21.1.35.35,0,0,1,.07.23c0,.2-.09.3-.28.3H60.83v3.08h3.55a.23.23,0,0,1,.2.1.38.38,0,0,1,.08.24c0,.22-.09.34-.28.34H60.43a.38.38,0,0,1-.23-.08A.24.24,0,0,1,60.1,37.55Z"/><path class="a" d="M1.88,7A1.88,1.88,0,1,0,3.77,8.88,1.88,1.88,0,0,0,1.88,7Z"/><path d="M.59,14.36c-.11.09-.31.34-.31,1.19a5.48,5.48,0,0,0,2.06,4.53A8.2,8.2,0,0,0,7,21.75H7.3l.34,0H8l.63,0,.23,0a7.69,7.69,0,0,0,4.36-1.66,5.57,5.57,0,0,0,2-4.54c0-.76-.15-1.07-.28-1.19s-.35-.25-1.14-.25c-1.41,0-1.47.56-1.49.77-.13,3.37-2.13,4.2-3.3,4.4a7,7,0,0,1-.93.07H7.73c-1.93,0-4.28-.8-4.44-4.58,0-.15-.08-.66-1.5-.66C.88,14.11.62,14.33.59,14.36Z"/><path d="M15.29,9.26V1.66A1.52,1.52,0,0,0,13.78.15H6.2a1.51,1.51,0,1,0,0,3h6.07V9.26a1.51,1.51,0,0,0,3,0Z"/><path d="M36.26.15H25.4a1.78,1.78,0,0,0-1,.26.58.58,0,0,0-.31.53V20.73a.58.58,0,0,0,.31.53,1.78,1.78,0,0,0,1,.26H36.26a.57.57,0,0,0,.53-.3,1.75,1.75,0,0,0,.25-.95,1.72,1.72,0,0,0-.26-1,.56.56,0,0,0-.52-.31h-9.1V11.91h5.1a.59.59,0,0,0,.55-.27,1.39,1.39,0,0,0,.24-.79A1.42,1.42,0,0,0,32.8,10a.61.61,0,0,0-.54-.27h-5.1v-7h9.1a.56.56,0,0,0,.52-.31,1.72,1.72,0,0,0,.26-1,1.75,1.75,0,0,0-.25-.95A.57.57,0,0,0,36.26.15Z"/><path d="M56.54,12.7a5.34,5.34,0,0,0-1.67-2,20.82,20.82,0,0,0-2.29-1.32c-.84-.41-1.62-.76-2.31-1a6.26,6.26,0,0,1-2-1.15,2.47,2.47,0,0,1-.88-1.89,2.41,2.41,0,0,1,1.09-2.1,4.91,4.91,0,0,1,2.81-.71,6.85,6.85,0,0,1,2.92.62,6.38,6.38,0,0,0,1.31.54.82.82,0,0,0,.74-.5A2.35,2.35,0,0,0,56.67,2a1.14,1.14,0,0,0-.47-.9A3.47,3.47,0,0,0,54.77.45,14.42,14.42,0,0,0,53,.11a10.89,10.89,0,0,0-4.15.2,8,8,0,0,0-2.22,1A4.59,4.59,0,0,0,45,3.05a5.7,5.7,0,0,0-.6,2.68,5.61,5.61,0,0,0,.49,2.41A4.48,4.48,0,0,0,46.15,9.8,11.49,11.49,0,0,0,48,11c.69.36,1.38.69,2,1s1.36.62,2,.94a4.66,4.66,0,0,1,1.55,1.32,3.11,3.11,0,0,1,.63,1.91A2.69,2.69,0,0,1,53,18.49a4.69,4.69,0,0,1-2.7.75,5.55,5.55,0,0,1-2.14-.41,4.84,4.84,0,0,1-1.49-.94,11.4,11.4,0,0,0-.94-.8,1.16,1.16,0,0,0-.62-.29c-.11,0-.44,0-.83.53a2,2,0,0,0-.44,1.15c0,.75.62,1.49,1.84,2.19a9.5,9.5,0,0,0,4.74,1.12,7.45,7.45,0,0,0,5-1.58,5.59,5.59,0,0,0,1.84-4.48A6.42,6.42,0,0,0,56.54,12.7Z"/><path d="M78.74,2.39a1.81,1.81,0,0,0,.26-1,1.76,1.76,0,0,0-.25-1h0a.57.57,0,0,0-.54-.3H65.31a.56.56,0,0,0-.53.3,1.79,1.79,0,0,0-.26,1,1.75,1.75,0,0,0,.26,1,.59.59,0,0,0,.53.3h5v18a.56.56,0,0,0,.35.52,2.61,2.61,0,0,0,2.33,0c.31-.18.36-.36.36-.51V2.7h4.91A.57.57,0,0,0,78.74,2.39Z"/></svg>