<?xml version="1.0" encoding="utf-8"?>
<svg viewBox="0 0 24 24" xmlns="http://www.w3.org/2000/svg">
  <defs>
    <style>.a{fill:#d13239;}</style>
  </defs>
  <rect x="4" y="4" width="16" height="16" style="fill: rgb(255, 255, 255); stroke-linejoin: round; stroke: rgb(255, 255, 255); stroke-width: 7px;"/>
  <g transform="matrix(0.823524, 0, 0, 0.823524, 1.705994, 2.405904)" style="">
    <path class="a" d="M 6.031 4 C 4.465 4.005 3.491 5.718 4.279 7.083 C 5.066 8.446 7.022 8.441 7.802 7.071 C 7.978 6.762 8.071 6.409 8.071 6.051 C 8.067 4.918 7.154 4 6.031 4" style=""/>
    <path class="a" d="M 18.967 4 C 17.401 4 16.423 5.709 17.205 7.076 C 17.989 8.445 19.946 8.445 20.728 7.076 C 20.907 6.765 21 6.411 21 6.051 C 20.997 4.92 20.088 4.003 18.967 4" style=""/>
    <path d="M 4.649 12.021 C 4.533 12.119 4.323 12.389 4.323 13.339 C 4.233 15.249 5.061 17.085 6.546 18.273 C 7.987 19.38 9.728 20.017 11.538 20.1 L 11.635 20.1 L 11.897 20.1 L 12.263 20.1 L 12.642 20.1 C 12.819 20.1 13.041 20.1 13.296 20.1 L 13.538 20.1 C 15.257 20.004 16.903 19.37 18.247 18.286 C 19.689 17.068 20.48 15.24 20.386 13.346 C 20.386 12.522 20.222 12.184 20.085 12.026 C 19.716 11.801 19.283 11.709 18.856 11.763 C 17.338 11.763 17.265 12.363 17.246 12.594 C 17.103 16.268 14.951 17.211 13.676 17.389 C 13.347 17.44 13.014 17.464 12.682 17.461 L 12.348 17.461 C 10.248 17.461 7.717 16.598 7.547 12.475 C 7.547 12.317 7.463 11.763 5.926 11.763 C 4.944 11.763 4.656 12.001 4.618 12.026" style=""/>
  </g>
</svg>